<?xml version="1.0" encoding="UTF-8"?>
<svg width="40" height="40" version="1.1" viewBox="0 0 40 40" xmlns="http://www.w3.org/2000/svg" xmlns:cc="http://creativecommons.org/ns#" xmlns:dc="http://purl.org/dc/elements/1.1/" xmlns:rdf="http://www.w3.org/1999/02/22-rdf-syntax-ns#">
 <metadata>
  <rdf:RDF>
   <cc:Work rdf:about="">
    <dc:format>image/svg+xml</dc:format>
    <dc:type rdf:resource="http://purl.org/dc/dcmitype/StillImage"/>
    <dc:title/>
   </cc:Work>
  </rdf:RDF>
 </metadata>
 <g transform="translate(-.11024 -.1305)">
  <g transform="matrix(.75 0 0 .75 .11024 .1305)" stroke-width="1.3333">
   <path d="m0 26.667v-26.667h53.333v53.333h-53.333zm24.128 21.713c2.7409-1.6191 3.8724-3.3308 3.8724-5.8582 0-3.5026-0.10177-3.5449-5.3333-2.217-4.9026 1.2444-5.3333 1.7175-5.3333 5.8582 0 5.088 1.2458 5.4946 6.7943 2.217zm-11.021-0.21095c1.0073-0.63856 1.5833-2.7898 1.3333-4.9796-0.37149-3.2543-1.1085-3.9199-4.7277-4.2697-3.6458-0.35237-4.4157 0.09621-5.1438 2.997-0.47092 1.8763-0.51033 4.3128-0.087596 5.4144 0.83272 2.17 5.7681 2.6495 8.6257 0.83789zm27.021-7.6374c2.9322-3.1212 2.9563-3.3582 0.80268-7.8744-2.5585-5.3652-5.2292-5.9174-8.188-1.6931-1.9893 2.8401-2.8825 11.785-1.3317 13.336 1.3541 1.3541 5.6488-0.50258 8.7171-3.7686zm-16.46-3.2814c2.236-0.77946 4.3574-2.4295 4.7144-3.6667 0.35694-1.2372 1.0812-3.2995 1.6096-4.5828 0.6804-1.6527 0.33561-2.3333-1.1821-2.3333-1.1785 0-2.1427-0.9-2.1427-2 0-4.825-8.8277-0.2387-10.75 5.5848-2.584 7.8296-0.36986 9.8288 7.7504 6.998zm-10.795-6.5828c1.4154-5.3029 1.402-5.3333-2.357-5.3333-2.8379 0-4.2877 0.98085-5.8148 3.9338-2.935 5.6757-2.565 6.7329 2.357 6.7329 3.9969 0 4.519-0.47887 5.8148-5.3333zm36.523-2.1895c2.2422-6.794-0.089709-13.653-6.6593-19.589-6.4326-5.8115-12.515-7.1859-19.284-4.3577-5.4525 2.2782-5.3147 3.7713 0.63163 6.8463 3.1223 1.6146 3.9154 2.9092 3.9154 6.3905 0 5.4965 2.0426 7.5658 7.4683 7.5658 3.4781 0 4.7866 0.87842 7.0677 4.7447 3.2244 5.4649 4.6367 5.1353 6.8598-1.6009zm-27.026-7.8861c4.2203-2.956 3.6732-5.629-1.6742-8.179-4.4074-2.1018-4.779-2.0842-7.4907 0.3549-3.6884 3.3177-5.3168 7.6073-3.3706 8.8793 2.5822 1.6877 9.4442 1.11 12.535-1.0552z" fill="#f0f8f5"/>
   <path d="m17.333 46.162c0-4.1407 0.4307-4.6138 5.3333-5.8582 5.2316-1.3279 5.3333-1.2856 5.3333 2.217 0 2.5274-1.1315 4.2391-3.8724 5.8582-5.5485 3.2776-6.7943 2.871-6.7943-2.217zm-12.852 1.1682c-0.42274-1.1016-0.38332-3.5381 0.087596-5.4144 0.72805-2.9008 1.498-3.3494 5.1438-2.997 3.6192 0.3498 4.3562 1.0154 4.7277 4.2697 0.24997 2.1898-0.32605 4.341-1.3333 4.9796-2.8576 1.8116-7.793 1.3322-8.6257-0.83789zm26.93-3.0309c-1.5508-1.5508-0.65756-10.496 1.3317-13.336 2.9588-4.2243 5.6296-3.6721 8.188 1.6931 2.1537 4.5163 2.1295 4.7533-0.80268 7.8744-3.0683 3.266-7.363 5.1227-8.7171 3.7686zm-16.241-7.5778c-1.3027-3.3947 2.0571-10.912 5.598-12.525 4.4799-2.0412 5.8987-1.9281 5.8987 0.47022 0 1.1 0.96419 2 2.1427 2 1.5177 0 1.8625 0.6806 1.1821 2.3333-0.52832 1.2833-1.2526 3.3456-1.6096 4.5828-0.62116 2.1531-6.745 5.0839-10.623 5.0839-1.0136 0-2.1787-0.87526-2.5893-1.945zm-12.503-2.1212c0-0.76975 0.91541-3.1698 2.0342-5.3333 1.527-2.9529 2.9769-3.9338 5.8148-3.9338 3.759 0 3.7724 0.03039 2.357 5.3333-1.2957 4.8545-1.8178 5.3333-5.8148 5.3333-2.4152 0-4.3912-0.6298-4.3912-1.3995zm39.869-4.5224c-2.2812-3.8663-3.5897-4.7447-7.0677-4.7447-5.4257 0-7.4683-2.0692-7.4683-7.5658 0-3.4813-0.79319-4.7759-3.9154-6.3905-5.9464-3.075-6.0841-4.5681-0.63163-6.8463 6.7689-2.8282 12.851-1.4538 19.284 4.3577 6.5696 5.9352 8.9015 12.795 6.6593 19.589-2.2231 6.7362-3.6355 7.0658-6.8598 1.6009zm-32.702-8.4318c-1.9462-1.272-0.31784-5.5616 3.3706-8.8793 2.7117-2.4391 3.0833-2.4567 7.4907-0.3549 2.5506 1.2163 4.6375 3.0872 4.6375 4.1574 0 4.4043-11.01 8.0106-15.499 5.0768z" fill="#26b485"/>
  </g>
 </g>
</svg>
